SplineFontDB: 3.2
FontName: FiveByFive
FullName: FiveByFive
FamilyName: FiveByFive
Weight: Regular
Copyright: Copyright (c) 2023, Robin
UComments: "2023-1-7: Created with FontForge (http://fontforge.org)"
Version: 001.000
ItalicAngle: 0
UnderlinePosition: 0
UnderlineWidth: 0
Ascent: 1000
Descent: 0
InvalidEm: 0
LayerCount: 2
Layer: 0 0 "Back" 1
Layer: 1 0 "Fore" 0
XUID: [1021 475 -824446587 6074497]
StyleMap: 0x0000
FSType: 0
OS2Version: 0
OS2_WeightWidthSlopeOnly: 0
OS2_UseTypoMetrics: 1
CreationTime: 1673145653
ModificationTime: 1673237173
OS2TypoAscent: 0
OS2TypoAOffset: 1
OS2TypoDescent: 0
OS2TypoDOffset: 1
OS2TypoLinegap: 90
OS2WinAscent: 0
OS2WinAOffset: 1
OS2WinDescent: 0
OS2WinDOffset: 1
HheadAscent: 0
HheadAOffset: 1
HheadDescent: 0
HheadDOffset: 1
OS2Vendor: 'PfEd'
MarkAttachClasses: 1
DEI: 91125
Encoding: ISO8859-1
UnicodeInterp: none
NameList: AGL For New Fonts
DisplaySize: -48
AntiAlias: 0
FitToEm: 0
WinInfo: 0 29 10
BeginPrivate: 0
EndPrivate
BeginChars: 256 41

StartChar: A
Encoding: 65 65 0
Width: 1000
Flags: H
LayerCount: 2
Fore
SplineSet
0 1000 m 1
 1000 1000 l 1
 1000 0 l 1
 800 0 l 1
 800 200 l 1
 600 200 l 1
 600 0 l 1
 0 0 l 1
 0 600 l 1
 400 600 l 1
 400 800 l 1
 0 800 l 1
 0 1000 l 1
200 200 m 1
 400 200 l 1
 400 400 l 1
 200 400 l 1
 200 200 l 1
EndSplineSet
Validated: 1
EndChar

StartChar: B
Encoding: 66 66 1
Width: 1000
Flags: H
LayerCount: 2
Fore
SplineSet
600 800 m 1
 1000 800 l 1
 1000 0 l 1
 0 0 l 1
 0 1000 l 1
 600 1000 l 1
 600 800 l 1
800 400 m 1
 800 600 l 1
 600 600 l 1
 600 200 l 1
 800 200 l 1
 800 400 l 1
EndSplineSet
Validated: 1
EndChar

StartChar: C
Encoding: 67 67 2
Width: 1000
Flags: H
LayerCount: 2
Fore
SplineSet
0 1000 m 1
 1000 1000 l 1
 1000 600 l 1
 800 600 l 1
 800 800 l 1
 600 800 l 1
 600 200 l 1
 800 200 l 1
 800 400 l 1
 1000 400 l 1
 1000 0 l 1
 0 0 l 1
 0 1000 l 1
EndSplineSet
Validated: 1
EndChar

StartChar: D
Encoding: 68 68 3
Width: 1000
Flags: H
LayerCount: 2
Fore
SplineSet
400 1000 m 1
 1000 1000 l 1
 1000 0 l 1
 800 0 l 1
 800 200 l 1
 600 200 l 1
 600 0 l 1
 0 0 l 1
 0 800 l 1
 400 800 l 1
 400 1000 l 1
200 200 m 1
 400 200 l 1
 400 600 l 1
 200 600 l 1
 200 200 l 1
EndSplineSet
Validated: 1
EndChar

StartChar: E
Encoding: 69 69 4
Width: 1000
Flags: H
LayerCount: 2
Fore
SplineSet
0 1000 m 1
 1000 1000 l 1
 1000 400 l 1
 600 400 l 1
 600 200 l 1
 1000 200 l 1
 1000 0 l 1
 0 0 l 1
 0 1000 l 1
800 600 m 1
 800 800 l 1
 600 800 l 1
 600 600 l 1
 800 600 l 1
EndSplineSet
Validated: 1
EndChar

StartChar: F
Encoding: 70 70 5
Width: 1000
Flags: H
LayerCount: 2
Fore
SplineSet
200 1000 m 1
 1000 1000 l 1
 1000 800 l 1
 800 800 l 1
 800 400 l 1
 1000 400 l 1
 1000 200 l 1
 800 200 l 1
 800 0 l 1
 200 0 l 1
 200 200 l 1
 0 200 l 1
 0 400 l 1
 200 400 l 1
 200 800 l 1
 200 1000 l 1
EndSplineSet
Validated: 1
EndChar

StartChar: G
Encoding: 71 71 6
Width: 1000
Flags: H
LayerCount: 2
Fore
SplineSet
0 1000 m 1
 1000 1000 l 1
 1000 0 l 1
 0 0 l 1
 0 200 l 1
 400 200 l 1
 400 400 l 1
 0 400 l 1
 0 1000 l 1
200 600 m 1
 400 600 l 1
 400 800 l 1
 200 800 l 1
 200 600 l 1
EndSplineSet
Validated: 1
EndChar

StartChar: H
Encoding: 72 72 7
Width: 1000
Flags: H
LayerCount: 2
Fore
SplineSet
600 800 m 1
 1000 800 l 1
 1000 0 l 1
 800 0 l 1
 800 600 l 1
 600 600 l 1
 600 0 l 1
 0 0 l 1
 0 1000 l 1
 600 1000 l 1
 600 800 l 1
EndSplineSet
Validated: 1
EndChar

StartChar: I
Encoding: 73 73 8
Width: 1000
Flags: H
LayerCount: 2
Fore
SplineSet
200 800 m 1
 200 1000 l 1
 800 1000 l 1
 800 800 l 1
 200 800 l 1
800 600 m 1
 800 200 l 1
 1000 200 l 1
 1000 0 l 1
 200 0 l 1
 200 400 l 1
 0 400 l 1
 0 600 l 1
 800 600 l 1
EndSplineSet
Validated: 1
EndChar

StartChar: J
Encoding: 74 74 9
Width: 1000
Flags: H
LayerCount: 2
Fore
SplineSet
400 800 m 1
 400 1000 l 1
 1000 1000 l 1
 1000 800 l 1
 400 800 l 1
400 600 m 1
 1000 600 l 1
 1000 0 l 1
 0 0 l 1
 0 400 l 1
 200 400 l 1
 200 200 l 1
 400 200 l 1
 400 600 l 1
EndSplineSet
Validated: 1
EndChar

StartChar: K
Encoding: 75 75 10
Width: 1000
Flags: H
LayerCount: 2
Fore
SplineSet
800 800 m 1
 800 1000 l 1
 1000 1000 l 1
 1000 600 l 1
 800 600 l 1
 800 400 l 1
 1000 400 l 1
 1000 0 l 1
 800 0 l 1
 800 200 l 1
 600 200 l 1
 600 0 l 1
 0 0 l 1
 0 1000 l 1
 600 1000 l 1
 600 800 l 1
 800 800 l 1
EndSplineSet
Validated: 1
EndChar

StartChar: L
Encoding: 76 76 11
Width: 1000
Flags: H
LayerCount: 2
Fore
SplineSet
800 1000 m 1
 800 200 l 1
 1000 200 l 1
 1000 0 l 1
 200 0 l 1
 200 800 l 1
 0 800 l 1
 0 1000 l 1
 800 1000 l 1
EndSplineSet
Validated: 1
EndChar

StartChar: M
Encoding: 77 77 12
Width: 1000
Flags: H
LayerCount: 2
Fore
SplineSet
400 1000 m 1
 1000 1000 l 1
 1000 0 l 1
 800 0 l 1
 800 400 l 1
 600 400 l 1
 600 0 l 1
 400 0 l 1
 400 400 l 1
 200 400 l 1
 200 0 l 1
 0 0 l 1
 0 1000 l 1
 200 1000 l 1
 200 800 l 1
 400 800 l 1
 400 1000 l 1
EndSplineSet
Validated: 1
EndChar

StartChar: N
Encoding: 78 78 13
Width: 1000
Flags: H
LayerCount: 2
Fore
SplineSet
400 1000 m 1
 1000 1000 l 1
 1000 0 l 1
 800 0 l 1
 800 800 l 1
 600 800 l 1
 600 0 l 1
 0 0 l 1
 0 1000 l 1
 200 1000 l 1
 200 800 l 1
 400 800 l 1
 400 1000 l 1
EndSplineSet
Validated: 1
EndChar

StartChar: O
Encoding: 79 79 14
Width: 1000
Flags: H
LayerCount: 2
Fore
SplineSet
0 1000 m 1
 1000 1000 l 1
 1000 0 l 1
 0 0 l 1
 0 1000 l 1
800 200 m 1
 800 800 l 1
 600 800 l 1
 600 200 l 1
 800 200 l 1
EndSplineSet
Validated: 1
EndChar

StartChar: P
Encoding: 80 80 15
Width: 1000
Flags: H
LayerCount: 2
Fore
SplineSet
0 1000 m 1
 1000 1000 l 1
 1000 200 l 1
 600 200 l 1
 600 0 l 1
 0 0 l 1
 0 1000 l 1
800 400 m 1
 800 800 l 1
 600 800 l 1
 600 400 l 1
 800 400 l 1
EndSplineSet
Validated: 1
EndChar

StartChar: Q
Encoding: 81 81 16
Width: 1000
Flags: H
LayerCount: 2
Fore
SplineSet
0 1000 m 1
 1000 1000 l 1
 1000 400 l 1
 800 400 l 1
 800 200 l 1
 1000 200 l 1
 1000 0 l 1
 400 0 l 1
 400 200 l 1
 0 200 l 1
 0 1000 l 1
200 400 m 1
 400 400 l 1
 400 800 l 1
 200 800 l 1
 200 400 l 1
EndSplineSet
Validated: 1
EndChar

StartChar: R
Encoding: 82 82 17
Width: 1000
Flags: H
LayerCount: 2
Fore
SplineSet
400 1000 m 1
 1000 1000 l 1
 1000 600 l 1
 800 600 l 1
 800 800 l 1
 600 800 l 1
 600 0 l 1
 0 0 l 1
 0 1000 l 1
 200 1000 l 1
 200 800 l 1
 400 800 l 1
 400 1000 l 1
EndSplineSet
Validated: 1
EndChar

StartChar: S
Encoding: 83 83 18
Width: 1000
Flags: H
LayerCount: 2
Fore
SplineSet
0 1000 m 1
 1000 1000 l 1
 1000 800 l 1
 600 800 l 1
 600 600 l 1
 1000 600 l 1
 1000 0 l 1
 0 0 l 1
 0 200 l 1
 400 200 l 1
 400 400 l 1
 0 400 l 1
 0 1000 l 1
EndSplineSet
Validated: 1
EndChar

StartChar: T
Encoding: 84 84 19
Width: 1000
Flags: H
LayerCount: 2
Fore
SplineSet
800 1000 m 1
 800 800 l 1
 1000 800 l 1
 1000 600 l 1
 800 600 l 1
 800 200 l 1
 1000 200 l 1
 1000 0 l 1
 200 0 l 1
 200 600 l 1
 0 600 l 1
 0 800 l 1
 200 800 l 1
 200 1000 l 1
 800 1000 l 1
EndSplineSet
Validated: 1
EndChar

StartChar: U
Encoding: 85 85 20
Width: 1000
Flags: H
LayerCount: 2
Fore
SplineSet
400 1000 m 1
 1000 1000 l 1
 1000 0 l 1
 800 0 l 1
 800 200 l 1
 600 200 l 1
 600 0 l 1
 0 0 l 1
 0 1000 l 1
 200 1000 l 1
 200 200 l 1
 400 200 l 1
 400 1000 l 1
EndSplineSet
Validated: 1
EndChar

StartChar: V
Encoding: 86 86 21
Width: 1000
Flags: H
LayerCount: 2
Fore
SplineSet
400 1000 m 1
 1000 1000 l 1
 1000 0 l 1
 200 0 l 1
 200 200 l 1
 0 200 l 1
 0 1000 l 1
 200 1000 l 1
 200 400 l 1
 400 400 l 1
 400 1000 l 1
EndSplineSet
Validated: 1
EndChar

StartChar: W
Encoding: 87 87 22
Width: 1000
Flags: H
LayerCount: 2
Fore
SplineSet
800 600 m 1
 800 1000 l 1
 1000 1000 l 1
 1000 0 l 1
 0 0 l 1
 0 1000 l 1
 200 1000 l 1
 200 600 l 1
 400 600 l 1
 400 1000 l 1
 600 1000 l 1
 600 600 l 1
 800 600 l 1
EndSplineSet
Validated: 1
EndChar

StartChar: X
Encoding: 88 88 23
Width: 1000
Flags: H
LayerCount: 2
Fore
SplineSet
800 800 m 1
 800 1000 l 1
 1000 1000 l 1
 1000 400 l 1
 800 400 l 1
 800 200 l 1
 1000 200 l 1
 1000 0 l 1
 400 0 l 1
 400 200 l 1
 200 200 l 1
 200 0 l 1
 0 0 l 1
 0 400 l 1
 200 400 l 1
 200 600 l 1
 0 600 l 1
 0 800 l 1
 0 1000 l 1
 600 1000 l 1
 600 800 l 1
 800 800 l 1
EndSplineSet
Validated: 1
EndChar

StartChar: Y
Encoding: 89 89 24
Width: 1000
Flags: H
LayerCount: 2
Fore
SplineSet
400 1000 m 1
 1000 1000 l 1
 1000 200 l 1
 1000 0 l 1
 0 0 l 1
 0 200 l 1
 400 200 l 1
 400 400 l 1
 0 400 l 1
 0 1000 l 1
 200 1000 l 1
 200 600 l 1
 400 600 l 1
 400 1000 l 1
EndSplineSet
Validated: 1
EndChar

StartChar: Z
Encoding: 90 90 25
Width: 1000
Flags: H
LayerCount: 2
Fore
SplineSet
0 1000 m 1
 1000 1000 l 1
 1000 800 l 1
 1000 600 l 1
 800 600 l 1
 800 400 l 1
 600 400 l 1
 600 200 l 1
 1000 200 l 1
 1000 0 l 1
 0 0 l 1
 0 400 l 1
 200 400 l 1
 200 600 l 1
 400 600 l 1
 400 800 l 1
 0 800 l 1
 0 1000 l 1
EndSplineSet
Validated: 1
EndChar

StartChar: zero
Encoding: 48 48 26
Width: 1000
Flags: H
LayerCount: 2
Fore
SplineSet
0 1000 m 1
 1000 1000 l 1
 1000 0 l 1
 0 0 l 1
 0 1000 l 1
800 600 m 1
 800 800 l 1
 600 800 l 1
 600 200 l 1
 800 200 l 1
 800 600 l 1
EndSplineSet
Validated: 1
EndChar

StartChar: one
Encoding: 49 49 27
Width: 1000
Flags: H
LayerCount: 2
Fore
SplineSet
800 1000 m 1
 800 200 l 1
 1000 200 l 1
 1000 0 l 1
 0 0 l 1
 0 200 l 1
 200 200 l 1
 200 600 l 1
 0 600 l 1
 0 800 l 1
 200 800 l 1
 200 1000 l 1
 800 1000 l 1
EndSplineSet
Validated: 1
EndChar

StartChar: two
Encoding: 50 50 28
Width: 1000
Flags: H
LayerCount: 2
Fore
SplineSet
800 1000 m 1
 800 800 l 1
 1000 800 l 1
 1000 600 l 1
 1000 400 l 1
 800 400 l 1
 800 200 l 1
 1000 200 l 1
 1000 0 l 1
 0 0 l 1
 0 600 l 1
 200 600 l 1
 200 800 l 1
 0 800 l 1
 0 1000 l 1
 800 1000 l 1
EndSplineSet
Validated: 1
EndChar

StartChar: three
Encoding: 51 51 29
Width: 1000
Flags: H
LayerCount: 2
Fore
SplineSet
0 1000 m 1
 1000 1000 l 1
 1000 0 l 1
 0 0 l 1
 0 200 l 1
 200 200 l 1
 200 400 l 1
 0 400 l 1
 0 600 l 1
 200 600 l 1
 200 800 l 1
 0 800 l 1
 0 1000 l 1
EndSplineSet
Validated: 1
EndChar

StartChar: four
Encoding: 52 52 30
Width: 1000
Flags: H
LayerCount: 2
Fore
SplineSet
400 1000 m 1
 1000 1000 l 1
 1000 0 l 1
 400 0 l 1
 400 200 l 1
 0 200 l 1
 0 1000 l 1
 200 1000 l 1
 200 400 l 1
 400 400 l 1
 400 1000 l 1
EndSplineSet
Validated: 1
EndChar

StartChar: five
Encoding: 53 53 31
Width: 1000
Flags: H
LayerCount: 2
Fore
SplineSet
0 1000 m 1
 1000 1000 l 1
 1000 800 l 1
 800 800 l 1
 800 600 l 1
 1000 600 l 1
 1000 200 l 1
 800 200 l 1
 800 0 l 1
 0 0 l 1
 0 200 l 1
 200 200 l 1
 200 400 l 1
 0 400 l 1
 0 1000 l 1
EndSplineSet
Validated: 1
EndChar

StartChar: six
Encoding: 54 54 32
Width: 1000
Flags: H
LayerCount: 2
Fore
SplineSet
0 1000 m 1
 1000 1000 l 1
 1000 800 l 1
 600 800 l 1
 600 600 l 1
 1000 600 l 1
 1000 0 l 1
 0 0 l 1
 0 1000 l 1
800 400 m 1
 600 400 l 1
 600 200 l 1
 800 200 l 1
 800 400 l 1
EndSplineSet
Validated: 1
EndChar

StartChar: seven
Encoding: 55 55 33
Width: 1000
Flags: H
LayerCount: 2
Fore
SplineSet
0 1000 m 1
 1000 1000 l 1
 1000 600 l 1
 800 600 l 1
 800 400 l 1
 600 400 l 1
 600 0 l 1
 0 0 l 1
 0 400 l 1
 200 400 l 1
 200 600 l 1
 400 600 l 1
 400 800 l 1
 0 800 l 1
 0 1000 l 1
EndSplineSet
Validated: 1
EndChar

StartChar: eight
Encoding: 56 56 34
Width: 1000
Flags: H
LayerCount: 2
Fore
SplineSet
0 1000 m 1
 1000 1000 l 1
 1000 0 l 1
 0 0 l 1
 0 1000 l 1
800 200 m 1
 800 400 l 1
 600 400 l 1
 600 200 l 1
 800 200 l 1
800 600 m 1
 800 800 l 1
 600 800 l 1
 600 600 l 1
 800 600 l 1
EndSplineSet
Validated: 1
EndChar

StartChar: nine
Encoding: 57 57 35
Width: 1000
Flags: H
LayerCount: 2
Fore
SplineSet
0 1000 m 1
 1000 1000 l 1
 1000 0 l 1
 0 0 l 1
 0 200 l 1
 400 200 l 1
 400 400 l 1
 0 400 l 1
 0 1000 l 1
200 600 m 1
 400 600 l 1
 400 800 l 1
 200 800 l 1
 200 600 l 1
EndSplineSet
Validated: 1
EndChar

StartChar: period
Encoding: 46 46 37
Width: 600
Flags: HW
LayerCount: 2
Fore
SplineSet
0 0 m 1
 0 600 l 1
 600 600 l 1
 600 0 l 1
 0 0 l 1
EndSplineSet
EndChar

StartChar: exclam
Encoding: 33 33 38
Width: 600
Flags: HW
LayerCount: 2
Fore
SplineSet
0 400 m 1
 0 1000 l 1
 600 1000 l 1
 600 400 l 1
 0 400 l 1
0 0 m 1
 0 200 l 1
 600 200 l 1
 600 0 l 1
 0 0 l 1
EndSplineSet
EndChar

StartChar: question
Encoding: 63 63 39
Width: 1000
Flags: H
LayerCount: 2
Fore
SplineSet
0 1000 m 1
 1000 1000 l 1
 1000 600 l 1
 800 600 l 1
 800 400 l 1
 200 400 l 1
 200 600 l 1
 400 600 l 1
 400 800 l 1
 0 800 l 1
 0 1000 l 1
200 0 m 1
 200 200 l 1
 800 200 l 1
 800 0 l 1
 200 0 l 1
EndSplineSet
Validated: 1
EndChar

StartChar: ampersand
Encoding: 38 38 40
Width: 1000
Flags: H
LayerCount: 2
Fore
SplineSet
0 800 m 1
 0 1000 l 1
 200 1000 l 1
 200 800 l 1
 0 800 l 1
800 800 m 1
 800 1000 l 1
 1000 1000 l 1
 1000 800 l 1
 800 800 l 1
0 0 m 1
 0 200 l 1
 200 200 l 1
 200 0 l 1
 0 0 l 1
200 200 m 1
 200 400 l 1
 400 400 l 1
 400 200 l 1
 200 200 l 1
400 400 m 1
 400 600 l 1
 600 600 l 1
 600 400 l 1
 400 400 l 1
600 600 m 1
 600 800 l 1
 800 800 l 1
 800 600 l 1
 600 600 l 1
200 600 m 1
 200 800 l 1
 400 800 l 1
 400 600 l 1
 200 600 l 1
600 200 m 1
 600 400 l 1
 800 400 l 1
 800 200 l 1
 600 200 l 1
800 0 m 1
 800 200 l 1
 1000 200 l 1
 1000 0 l 1
 800 0 l 1
EndSplineSet
EndChar
